<?xml version="1.0" encoding="UTF-8"?>
<svg width="272px" height="80px" viewBox="0 0 272 80" version="1.1" xmlns="http://www.w3.org/2000/svg" xmlns:xlink="http://www.w3.org/1999/xlink">
    <!-- Generator: Sketch 52.6 (67491) - http://www.bohemiancoding.com/sketch -->
    <title>spotify</title>
    <desc>Created with Sketch.</desc>
    <g id="Page-1" stroke="none" stroke-width="1" fill="none" fill-rule="evenodd">
        <g id="spotify" transform="translate(136.000000, 40.000000) rotate(90.000000) translate(-136.000000, -40.000000) translate(96.000000, -96.000000)" fill="#109840" fill-rule="nonzero">
            <path d="M-68.1053308,126.718061 C-79.4465073,124.015306 -81.4621936,122.118361 -81.4621936,118.132424 C-81.4621936,114.366753 -77.9170955,111.832528 -72.6386642,111.832528 C-67.5249387,111.832528 -62.458272,113.756909 -57.1406249,117.718545 C-56.9837622,117.838476 -56.7798406,117.886292 -56.5837622,117.854937 C-56.3798406,117.825151 -56.2072916,117.716194 -56.0896446,117.552367 L-50.5523896,109.751375 C-50.3249387,109.429992 -50.3876838,108.98711 -50.6935661,108.741762 C-57.0229779,103.667825 -64.1445465,101.201012 -72.4739583,101.201012 C-84.7170955,101.201012 -93.2739583,108.545012 -93.2739583,119.052678 C-93.2739583,130.32069 -85.8935661,134.310545 -73.1406249,137.390338 C-62.2935661,139.888505 -60.458272,141.981416 -60.458272,145.722004 C-60.458272,149.868632 -64.1602328,152.447537 -70.1210171,152.447537 C-76.7406249,152.447537 -82.1445465,150.213531 -88.1837622,144.993012 C-88.3327818,144.859756 -88.5367034,144.804886 -88.7249387,144.812724 C-88.9288602,144.828401 -89.1092524,144.922465 -89.2347426,145.071398 L-95.4465073,152.455375 C-95.7053308,152.76892 -95.6739583,153.22356 -95.3759191,153.490073 C-88.3484681,159.760966 -79.7053308,163.068862 -70.3719975,163.068862 C-57.1798406,163.068862 -48.6543504,155.865174 -48.6543504,144.710822 C-48.630821,135.298995 -54.2700367,130.086315 -68.0818014,126.728251 L-68.1053308,126.718061 Z M-18.80337,115.540194 C-24.5210171,115.540194 -29.2112132,117.791445 -33.085723,122.404471 L-33.085723,117.212171 C-33.085723,116.802211 -33.4151347,116.468286 -33.8229779,116.468286 L-43.9798406,116.468286 C-44.3876838,116.468286 -44.7170955,116.802211 -44.7170955,117.212171 L-44.7170955,174.905174 C-44.7170955,175.312782 -44.3876838,175.649842 -43.9798406,175.649842 L-33.8229779,175.649842 C-33.4151347,175.649842 -33.085723,175.312782 -33.085723,174.905174 L-33.085723,156.696067 C-29.2112132,161.030822 -24.5210171,163.155087 -18.80337,163.155087 C-8.17591906,163.155087 2.58486525,154.97941 2.58486525,139.349992 C2.60055153,123.717439 -8.16023279,115.53941 -18.7955269,115.53941 L-18.80337,115.540194 Z M-9.22689945,139.349992 C-9.22689945,147.305404 -14.1288602,152.862983 -21.1563112,152.862983 C-28.0974877,152.862983 -33.3367034,147.054569 -33.3367034,139.349992 C-33.3367034,131.644632 -28.0974877,125.837785 -21.1563112,125.837785 C-14.2465073,125.837001 -9.22689945,131.51843 -9.22689945,139.349208 L-9.22689945,139.349992 Z M30.1534927,115.540194 C16.4672182,115.540194 5.74564957,126.072159 5.74564957,139.52009 C5.74564957,152.82379 16.39663,163.241312 29.9887868,163.241312 C43.7221202,163.241312 54.4750613,152.745404 54.4750613,139.349992 C54.4750613,126.000044 43.7927084,115.541762 30.1534927,115.541762 L30.1534927,115.540194 Z M30.1534927,152.94137 C22.8750613,152.94137 17.3848653,147.093762 17.3848653,139.346073 C17.3848653,131.56311 22.686826,125.915387 29.9887868,125.915387 C37.314277,125.915387 42.8358456,131.760643 42.8358456,139.516171 C42.8358456,147.297566 37.5025123,152.94137 30.1534927,152.94137 Z M83.6985907,116.468286 L72.5221202,116.468286 L72.5221202,105.050557 C72.5221202,104.641381 72.1927084,104.307456 71.7848653,104.307456 L61.6280025,104.307456 C61.2201594,104.307456 60.8829045,104.641381 60.8829045,105.050557 L60.8829045,116.468286 L56.0044731,116.468286 C55.59663,116.468286 55.2672182,116.802211 55.2672182,117.212171 L55.2672182,125.9342 C55.2672182,126.343375 55.59663,126.678084 56.0044731,126.678084 L60.8829045,126.678084 L60.8829045,149.249381 C60.8829045,158.365692 65.4240809,162.990476 74.3887868,162.990476 C78.0280025,162.990476 81.0476104,162.237969 83.8946692,160.623214 C84.1299633,160.497796 84.2711398,160.24696 84.2711398,159.980447 L84.2711398,151.671514 C84.2711398,151.420678 84.1378064,151.177681 83.9181986,151.044424 C83.6985907,150.903329 83.4240809,150.895491 83.19663,151.01307 C81.2436888,151.992897 79.3534927,152.447537 77.2358456,152.447537 C73.9809437,152.447537 72.5221202,150.966038 72.5221202,147.658142 L72.5221202,126.682004 L83.6985907,126.682004 C84.1064339,126.682004 84.4358456,126.348079 84.4358456,125.938119 L84.4358456,117.216874 C84.4515319,116.806914 84.1221202,116.472989 83.7064339,116.472989 L83.6985907,116.468286 Z M122.631924,116.512966 L122.631924,115.110638 C122.631924,110.985174 124.216238,109.14545 127.761336,109.14545 C129.878983,109.14545 131.580944,109.5656 133.486826,110.200528 C133.72212,110.274211 133.965257,110.23737 134.153493,110.097058 C134.349571,109.956747 134.459375,109.731779 134.459375,109.493485 L134.459375,100.941554 C134.459375,100.614684 134.255453,100.325439 133.933885,100.229024 C131.926042,99.6309374 129.353493,99.0171737 125.494669,99.0171737 C116.12212,99.0171737 111.157414,104.295698 111.157414,114.276609 L111.157414,116.42439 L106.278983,116.42439 C105.87114,116.42439 105.533885,116.758315 105.533885,117.167491 L105.533885,125.9342 C105.533885,126.343375 105.87114,126.678084 106.278983,126.678084 L111.157414,126.678084 L111.157414,161.485462 C111.157414,161.900909 111.494669,162.23013 111.902512,162.23013 L122.051532,162.23013 C122.467218,162.23013 122.79663,161.900909 122.79663,161.485462 L122.79663,126.680436 L132.278983,126.680436 L146.804473,161.485462 C145.157414,165.138257 143.533885,165.867249 141.32212,165.867249 C139.533885,165.867249 137.643689,165.334223 135.72212,164.276009 C135.541728,164.181946 135.32212,164.166269 135.133885,164.221139 C134.937806,164.291687 134.773101,164.432782 134.694669,164.620909 L131.251532,172.169496 C131.086826,172.530073 131.228003,172.94552 131.573101,173.133646 C135.165257,175.077623 138.404473,175.908517 142.412316,175.908517 C149.910355,175.908517 154.059375,172.412494 157.706434,163.021831 L175.32212,117.528851 C175.416238,117.299963 175.384865,117.041289 175.243689,116.838269 C175.110355,116.636816 174.882904,116.515318 174.639767,116.515318 L164.067218,116.515318 C163.74565,116.515318 163.463297,116.71677 163.361336,117.013854 L152.529963,147.924655 L140.67114,116.993473 C140.561336,116.705796 140.286826,116.515318 139.980944,116.515318 L122.631924,116.515318 L122.631924,116.512966 Z M100.059375,116.468286 L89.9025123,116.468286 C89.4946692,116.468286 89.1574143,116.802211 89.1574143,117.212171 L89.1574143,161.485462 C89.1574143,161.900909 89.4946692,162.23013 89.9025123,162.23013 L100.059375,162.23013 C100.467218,162.23013 100.804473,161.900909 100.804473,161.485462 L100.804473,117.215306 C100.804473,116.805347 100.475061,116.471422 100.059375,116.471422 L100.059375,116.468286 Z M95.0397672,96.3081478 C91.0162378,96.3081478 87.7534927,99.5627414 87.7534927,103.583168 C87.7534927,107.605946 91.0162378,110.864459 95.0397672,110.864459 C99.0632966,110.864459 102.318199,107.605946 102.318199,103.583168 C102.318199,99.5635253 99.0554535,96.3081478 95.0397672,96.3081478 Z" id="Shape" transform="translate(39.877067, 136.108332) scale(-1, -1) rotate(90.000000) translate(-39.877067, -136.108332) "></path>
        </g>
    </g>
</svg>